# xmcd
#
# Track frame offsets: 
#        150
#        16172
#        30380
#        39054
#        54643
#        68859
#        78889
#        96362
#        106702
#        124363
#        135184
#        144404
#        154023
#        168246
#        185299
#        200761
#        215922
#        230217
#        241486
#        255519
#        273254
#        291687
#        310908
#        326202
#        343887
#
# Disc length: 4776 seconds
#
# Revision: 0
# Processed by: cddbd v1.5.2PL0 Copyright (c) Steve Scherf et al.
# Submitted via: ExactAudioCopy v0.95b3
#
DISCID=6f12a619
DTITLE=The Rolling Stones  - Unsurpassed Masters Vol. 2 1965-1967  FLA
DTITLE=C
DYEAR=1900
DGENRE=
TTITLE0=Everybody Needs Somebody To Love
TTITLE1=The Last Time
TTITLE2=Oh Baby (We Got A Good Thing Goin')
TTITLE3=The Spider And The Fly
TTITLE4=Cry To Me
TTITLE5=Fanny Mae
TTITLE6=(I Can't Get No) Satisfaction
TTITLE7=Looking Tired
TTITLE8=19th Nervous Breakdown
TTITLE9=Paint It Black
TTITLE10=Sometimes Happy, Sometimes Blue
TTITLE11=Yesterday's Papers (demo)
TTITLE12=Yesterday's Papers (backing track)
TTITLE13=Let's Spend The Night Together
TTITLE14=Ruby Tuesday
TTITLE15=Please Go Home
TTITLE16=Get Yourself Together
TTITLE17=Have You Seen Your Mother
TTITLE18=We Love You
TTITLE19=Citadel
TTITLE20=2000 Light Years From Home
TTITLE21=Gold Painted Fingernails
TTITLE22=On With The Show
TTITLE23=Jumpin Jack Flash
TTITLE24=Child Of The Moon
EXTD=
EXTT0=
EXTT1=
EXTT2=
EXTT3=
EXTT4=
EXTT5=
EXTT6=
EXTT7=
EXTT8=
EXTT9=
EXTT10=
EXTT11=
EXTT12=
EXTT13=
EXTT14=
EXTT15=
EXTT16=
EXTT17=
EXTT18=
EXTT19=
EXTT20=
EXTT21=
EXTT22=
EXTT23=
EXTT24=
PLAYORDER=
